<?xml version="1.0" standalone="no"?>
<!DOCTYPE svg PUBLIC "-//W3C//DTD SVG 20010904//EN"
 "http://www.w3.org/TR/2001/REC-SVG-20010904/DTD/svg10.dtd">
<svg version="1.0" xmlns="http://www.w3.org/2000/svg"
 width="2294.000000pt" height="1317.000000pt" viewBox="0 0 2294.000000 1317.000000"
 preserveAspectRatio="xMidYMid meet">

<g transform="translate(0.000000,1317.000000) scale(0.100000,-0.100000)"
fill="#000000" stroke="none">
<path d="M12130 13154 c-736 -54 -1343 -242 -1902 -589 -606 -377 -1073 -947
-1352 -1653 -102 -257 -185 -586 -220 -872 -68 -556 -38 -1026 94 -1489 112
-389 321 -800 567 -1116 419 -538 1040 -966 1724 -1190 847 -277 1836 -269
2724 22 467 153 820 341 1078 576 l59 53 -570 722 -570 721 -69 -56 c-375
-309 -887 -465 -1391 -424 -315 25 -549 104 -808 272 -248 162 -411 333 -548
577 -217 385 -306 937 -220 1360 67 332 253 639 526 868 353 296 760 430 1243
411 453 -19 838 -150 1168 -398 43 -33 82 -59 86 -59 9 0 1071 1445 1071 1457
0 5 -32 33 -72 63 -533 397 -1204 653 -1923 730 -102 11 -596 21 -695 14z"/>
<path d="M3455 13124 c-16 -2 -79 -9 -140 -15 -702 -70 -1422 -342 -1938 -731
-554 -417 -951 -979 -1177 -1667 -129 -391 -183 -717 -184 -1106 0 -306 29
-548 100 -830 331 -1307 1457 -2370 2784 -2630 415 -81 1139 -108 1590 -60
833 89 1518 388 2097 917 348 318 677 779 884 1239 53 119 122 294 133 342 l6
27 -1283 0 -1283 0 -23 -70 c-109 -341 -389 -617 -722 -713 -227 -66 -542 -62
-779 9 -435 132 -708 508 -770 1059 -5 50 -10 116 -10 148 l0 57 2449 0 c1949
0 2451 3 2458 13 13 20 16 446 4 637 -76 1251 -618 2192 -1611 2795 -116 71
-347 187 -495 250 -330 140 -796 255 -1265 311 -127 15 -745 29 -825 18z
m-567 -346 c35 -127 54 -209 51 -211 -2 -2 -62 -20 -134 -41 -431 -124 -808
-317 -1145 -585 -131 -104 -367 -344 -474 -481 -234 -302 -413 -625 -556
-1005 -28 -77 -53 -141 -54 -142 -1 -2 -57 16 -124 38 l-121 40 30 82 c173
471 367 824 644 1174 93 118 337 366 458 466 290 241 627 433 1008 576 136 50
360 120 391 121 11 0 20 -12 26 -32z m68 -734 c19 -64 32 -120 27 -124 -4 -4
-46 -20 -93 -35 -600 -196 -1116 -626 -1399 -1167 -56 -105 -140 -307 -156
-370 -9 -35 -17 -35 -145 5 -125 40 -122 29 -54 205 252 653 730 1155 1387
1458 114 53 353 143 379 144 13 0 26 -27 54 -116z m18 -576 c16 -62 29 -117
30 -121 0 -5 -34 -21 -76 -37 -202 -74 -389 -200 -573 -385 -181 -181 -294
-348 -356 -525 -12 -36 -25 -69 -29 -73 -5 -6 -236 47 -247 57 -2 2 8 34 21
72 133 392 481 783 899 1009 83 45 255 113 287 115 11 0 23 -31 44 -112z
m1241 -97 c341 -66 579 -240 724 -529 69 -138 131 -379 131 -511 l0 -71 -896
0 -895 0 -55 -60 c-185 -199 -497 -171 -643 58 -78 124 -80 289 -5 418 55 93
182 181 279 192 39 4 45 9 86 71 139 212 382 370 655 425 195 40 437 43 619 7z"/>
<path d="M19169 4568 c-45 -120 -142 -189 -243 -172 -37 6 -169 49 -316 102
-102 37 -302 66 -465 66 -133 1 -158 -2 -218 -23 -234 -80 -424 -320 -472
-597 -8 -48 -15 -93 -15 -100 0 -11 37 -14 199 -14 l199 0 7 33 c11 50 33 86
88 144 71 75 123 90 233 67 44 -8 144 -41 224 -71 260 -100 351 -125 477 -130
246 -12 432 73 548 248 72 108 153 326 171 459 l7 50 -200 0 -201 0 -23 -62z"/>
<path d="M8802 4589 c-110 -35 -214 -141 -247 -252 -23 -75 -21 -191 4 -261
41 -118 110 -198 211 -245 49 -23 67 -26 170 -26 96 0 125 4 171 23 78 31 148
103 196 199 36 74 38 81 38 178 0 99 -1 104 -39 179 -56 109 -128 175 -227
204 -93 28 -192 28 -277 1z"/>
<path d="M9998 3978 l-3 -483 -170 -3 -171 -2 -82 -308 c-46 -169 -85 -317
-88 -329 l-6 -23 258 -2 259 -3 6 -570 c6 -609 7 -618 61 -780 125 -376 462
-575 971 -575 l136 0 25 83 c79 260 205 692 202 694 -1 1 -20 -3 -42 -9 -21
-7 -95 -12 -164 -12 -176 0 -251 23 -330 102 -86 87 -85 78 -85 612 l0 455
175 5 175 5 82 305 c45 168 84 315 88 328 l5 22 -265 0 -265 0 0 485 0 485
-385 0 -385 0 -2 -482z"/>
<path d="M15773 3669 c-307 -40 -640 -195 -833 -388 -183 -183 -328 -485 -382
-791 -19 -114 -17 -396 5 -500 43 -202 122 -390 218 -522 198 -268 509 -466
839 -534 47 -10 86 -18 88 -19 1 -1 -25 -61 -59 -134 -34 -73 -59 -134 -56
-137 3 -3 40 -10 83 -15 220 -28 301 -190 140 -284 -100 -58 -245 -56 -367 6
-58 29 -62 29 -74 12 -7 -10 -45 -58 -83 -108 l-71 -89 27 -18 c41 -28 170
-75 236 -87 98 -18 262 -14 352 9 148 37 291 127 350 222 99 157 44 356 -132
473 -32 22 -63 42 -67 46 -5 4 3 25 17 48 25 38 29 41 72 41 108 0 414 76 559
140 105 45 273 172 264 199 -2 5 -97 132 -212 280 l-207 271 -55 -44 c-183
-149 -496 -188 -708 -88 -146 69 -240 164 -313 317 -53 111 -74 211 -74 352 0
125 17 207 61 298 109 223 318 348 579 347 169 0 295 -38 429 -127 l81 -54 24
32 c91 122 369 525 370 536 3 42 -334 223 -494 265 -191 51 -427 69 -607 45z
m-389 -3438 c8 -13 -21 -34 -39 -27 -10 4 -15 -1 -16 -17 -1 -16 -3 -17 -6 -5
-3 11 -10 15 -21 11 -22 -8 -10 5 25 28 32 20 49 23 57 10z m96 -42 c0 -5 -11
-15 -25 -21 -14 -6 -26 -18 -26 -27 -1 -12 -2 -12 -6 2 -4 15 -7 16 -21 5 -10
-6 -2 4 17 24 30 33 61 41 61 17z m41 -23 c-9 -10 -8 -16 4 -26 12 -10 15 -10
16 1 0 10 2 11 6 1 2 -6 9 -9 14 -6 6 3 18 0 27 -7 9 -7 14 -10 10 -5 -3 4 3
17 14 28 15 15 23 17 31 9 9 -9 8 -14 -2 -20 -7 -5 -11 -13 -7 -19 3 -6 1 -14
-5 -18 -7 -4 -9 -3 -5 4 3 6 2 13 -4 17 -5 3 -10 0 -10 -8 0 -7 -7 -14 -15
-14 -8 0 -15 5 -15 11 0 6 -4 5 -9 -3 -6 -9 -11 -10 -15 -3 -4 6 -13 9 -21 5
-8 -3 -15 -1 -15 4 0 16 -47 8 -69 -11 -12 -11 -24 -16 -29 -12 -4 4 2 14 12
22 11 8 16 14 12 14 -5 0 -3 7 4 15 10 12 16 13 27 4 11 -10 17 -8 29 9 8 12
18 22 21 22 3 0 0 -6 -6 -14z"/>
<path d="M15345 220 c-3 -5 1 -10 9 -10 8 0 18 5 21 10 3 6 -1 10 -9 10 -8 0
-18 -4 -21 -10z"/>
<path d="M15440 185 c-14 -16 -3 -20 19 -6 8 5 9 11 3 15 -5 3 -15 -1 -22 -9z"/>
<path d="M1280 3584 c-167 -21 -346 -76 -502 -154 -250 -125 -413 -265 -550
-474 -101 -153 -151 -268 -191 -441 -21 -88 -21 -111 -24 -1297 l-4 -1208 396
0 395 0 0 515 c0 283 2 515 5 515 3 0 16 -6 28 -14 37 -24 255 -86 375 -106
366 -63 779 22 1081 224 304 202 520 519 588 863 23 120 23 367 -1 478 -102
471 -433 843 -906 1018 -157 58 -269 78 -475 82 -99 2 -196 1 -215 -1z m345
-721 c112 -27 182 -70 286 -173 144 -143 199 -266 199 -445 0 -174 -56 -304
-189 -436 -135 -134 -241 -183 -428 -195 -119 -8 -235 14 -333 62 -102 51
-251 198 -298 297 -87 182 -82 403 15 576 72 130 229 260 370 305 112 36 254
40 378 9z"/>
<path d="M4220 3570 c-203 -37 -367 -95 -525 -187 -254 -147 -421 -325 -540
-576 -98 -208 -129 -345 -128 -572 2 -512 296 -956 788 -1190 196 -93 338
-125 590 -132 240 -7 350 8 557 78 80 27 149 49 152 49 3 0 6 -13 6 -29 0 -27
3 -29 53 -35 28 -3 203 -6 388 -6 l336 0 8 678 c6 602 5 689 -10 787 -82 550
-529 999 -1120 1127 -138 29 -417 34 -555 8z m405 -706 c203 -48 392 -217 467
-420 19 -51 23 -79 23 -199 0 -155 -13 -206 -77 -313 -41 -67 -146 -174 -216
-219 -208 -134 -505 -133 -719 2 -216 137 -327 387 -284 642 22 129 119 291
223 373 53 43 175 108 238 129 98 31 226 33 345 5z"/>
<path d="M7210 3575 c-312 -48 -617 -198 -807 -398 -160 -168 -281 -407 -338
-667 -25 -113 -31 -401 -11 -516 55 -316 211 -582 451 -769 276 -216 573 -315
945 -315 340 0 727 117 890 268 l61 57 -213 267 c-203 256 -213 267 -233 252
-176 -130 -360 -181 -560 -156 -213 27 -368 128 -474 310 -70 120 -101 243
-101 395 1 314 235 566 562 607 175 21 386 -31 537 -134 30 -20 57 -33 61 -29
4 4 96 129 204 277 l197 270 -68 44 c-153 99 -348 181 -533 224 -115 26 -433
34 -570 13z"/>
<path d="M12800 3583 c-247 -32 -500 -128 -705 -266 -99 -67 -248 -209 -314
-300 -91 -124 -178 -315 -219 -477 -23 -93 -26 -125 -26 -285 -1 -140 3 -199
18 -265 26 -119 70 -239 126 -347 153 -293 462 -549 797 -661 166 -56 245 -67
488 -67 251 0 335 14 537 86 60 21 114 39 119 39 5 0 9 -13 9 -29 0 -27 3 -29
53 -35 28 -3 204 -6 390 -6 l338 0 -3 747 -3 748 -27 95 c-139 505 -555 884
-1096 1001 -72 15 -143 21 -272 24 -96 2 -191 1 -210 -2z m335 -720 c33 -8
100 -36 149 -61 309 -162 430 -525 279 -832 -54 -111 -179 -233 -293 -288
-114 -54 -174 -67 -305 -67 -159 1 -280 41 -405 134 -106 79 -190 206 -225
336 -20 78 -20 242 0 320 63 237 301 442 555 476 68 9 166 2 245 -18z"/>
<path d="M18265 3576 c-401 -67 -749 -264 -961 -545 -68 -91 -160 -266 -199
-381 -46 -136 -59 -224 -59 -400 -1 -235 33 -380 134 -585 150 -304 459 -565
803 -680 184 -61 247 -70 492 -70 253 0 310 9 521 80 72 25 134 45 137 45 4 0
7 -13 7 -29 0 -27 3 -29 53 -35 28 -3 203 -6 388 -6 l337 0 4 653 c3 358 1
697 -4 752 -39 447 -346 868 -782 1070 -112 52 -226 90 -348 116 -121 26 -407
34 -523 15z m379 -713 c76 -19 197 -80 264 -133 85 -67 174 -199 208 -309 8
-25 17 -84 21 -131 13 -193 -43 -338 -186 -480 -144 -144 -268 -194 -476 -194
-102 1 -132 5 -200 27 -111 37 -196 90 -274 172 -126 134 -176 270 -168 460 7
172 55 281 182 410 167 170 399 236 629 178z"/>
<path d="M21320 3584 c-14 -2 -66 -11 -117 -19 -440 -72 -829 -357 -1014 -744
-100 -208 -132 -346 -133 -566 0 -168 12 -255 56 -395 61 -192 160 -359 302
-508 122 -127 234 -209 401 -292 236 -116 370 -150 635 -157 268 -7 422 22
673 126 201 85 467 306 590 493 295 445 298 996 7 1443 -63 98 -263 298 -372
373 -165 113 -353 190 -555 228 -84 15 -417 28 -473 18z m335 -720 c77 -19
189 -75 259 -130 228 -179 301 -501 173 -763 -23 -48 -58 -93 -127 -162 -80
-81 -108 -103 -180 -137 -265 -127 -545 -78 -755 133 -82 82 -126 151 -161
255 -15 43 -19 84 -19 185 0 115 3 138 26 202 53 143 155 265 288 342 162 94
319 118 496 75z"/>
<path d="M8560 2235 l0 -1255 390 0 390 0 0 1255 0 1255 -390 0 -390 0 0
-1255z"/>
</g>
</svg>
